<?xml version="1.0" standalone="no"?>
<!DOCTYPE svg PUBLIC "-//W3C//DTD SVG 20010904//EN"
 "http://www.w3.org/TR/2001/REC-SVG-20010904/DTD/svg10.dtd">
<svg version="1.0" xmlns="http://www.w3.org/2000/svg"
 width="780.000000pt" height="780.000000pt" viewBox="0 0 780.000000 780.000000"
 preserveAspectRatio="xMidYMid meet">
<metadata>
Created by potrace 1.11, written by Peter Selinger 2001-2013
</metadata>
<g transform="translate(0.000000,780.000000) scale(0.100000,-0.100000)"
fill="#000000" stroke="none">
<path d="M2918 7666 c-80 -83 -114 -126 -102 -126 3 0 1 -6 -5 -14 -7 -8 -14
-30 -17 -48 -2 -18 -6 -44 -9 -58 -12 -53 -14 -248 -4 -305 6 -33 13 -74 15
-92 1 -18 7 -41 13 -51 6 -11 8 -22 4 -25 -3 -4 1 -17 9 -29 18 -28 77 -191
85 -233 2 -16 9 -36 15 -42 17 -22 -14 -25 -113 -13 -152 18 -577 24 -729 11
-156 -14 -334 -45 -370 -65 -14 -7 -52 -21 -85 -31 -61 -17 -208 -86 -261
-122 -16 -10 -43 -29 -61 -41 -18 -12 -37 -22 -42 -22 -5 0 -16 -8 -23 -18 -7
-10 -29 -28 -48 -42 -45 -30 -250 -235 -276 -275 -10 -16 -27 -36 -36 -43 -10
-7 -18 -18 -18 -25 0 -6 -12 -23 -26 -38 -26 -28 -32 -35 -68 -100 -10 -19
-29 -47 -42 -62 -13 -16 -24 -33 -24 -38 0 -6 -20 -41 -45 -79 -25 -38 -45
-73 -45 -79 0 -5 -10 -22 -23 -38 -13 -15 -34 -53 -46 -83 -13 -30 -29 -62
-36 -70 -6 -8 -25 -55 -40 -105 -16 -49 -32 -95 -37 -101 -4 -6 -12 -43 -18
-82 -5 -40 -14 -80 -19 -90 -24 -47 -31 -75 -41 -172 -7 -58 -16 -122 -21
-143 -6 -21 -17 -87 -24 -145 -13 -94 -13 -128 0 -272 18 -194 40 -347 60
-410 8 -25 19 -75 24 -111 10 -62 23 -98 72 -206 10 -24 19 -45 19 -49 0 -10
52 -109 75 -144 14 -19 35 -50 47 -68 13 -19 49 -67 81 -108 31 -40 57 -77 57
-81 0 -10 39 -51 206 -216 206 -205 208 -207 217 -207 7 0 181 -134 258 -199
20 -17 39 -31 43 -31 3 0 31 -17 62 -37 31 -21 71 -47 90 -59 19 -11 44 -29
56 -40 13 -11 41 -29 63 -40 22 -10 55 -31 73 -47 18 -15 37 -27 43 -27 5 0
41 -20 79 -45 38 -25 73 -45 79 -45 5 0 22 -10 38 -23 15 -12 46 -31 68 -42
22 -11 53 -30 68 -42 16 -13 33 -23 37 -23 9 0 61 -30 215 -123 28 -17 65 -39
84 -48 18 -10 41 -24 50 -32 18 -17 132 -77 144 -77 7 0 20 -9 51 -37 8 -7 16
-9 20 -6 3 4 6 0 6 -7 0 -7 3 -11 6 -8 3 4 42 -20 87 -53 45 -32 88 -59 95
-59 6 0 12 -4 12 -10 0 -5 5 -10 11 -10 6 0 47 -27 91 -60 43 -33 83 -60 88
-60 4 0 10 -7 14 -15 3 -8 11 -15 18 -15 7 0 19 -9 26 -20 7 -11 19 -20 26
-20 8 0 24 -12 35 -26 12 -15 21 -24 21 -20 0 3 14 -6 32 -21 78 -68 267 -239
308 -279 25 -24 49 -44 53 -44 8 0 40 -30 232 -219 72 -70 146 -147 165 -171
19 -24 43 -51 52 -61 10 -11 18 -22 18 -25 0 -3 20 -34 45 -68 25 -35 45 -69
45 -75 0 -6 5 -11 10 -11 6 0 9 -3 8 -7 -1 -5 7 -29 19 -54 11 -26 24 -62 28
-80 4 -19 16 -44 28 -57 18 -19 31 -22 94 -22 65 0 77 3 99 25 19 19 23 31 19
55 -3 17 -1 30 5 30 5 0 9 10 9 23 -1 49 18 136 39 171 12 20 22 44 22 52 0 8
3 14 8 14 4 0 13 12 19 28 13 28 99 154 127 185 9 9 16 21 16 26 0 5 11 19 26
30 14 11 24 21 22 23 -7 8 329 358 344 358 5 0 28 21 53 47 25 27 45 44 45 40
0 -5 13 4 29 20 17 15 46 42 66 58 21 17 42 35 49 40 6 6 67 53 136 104 69 51
132 98 140 104 9 7 56 39 105 72 50 33 92 63 93 68 2 4 10 7 18 7 8 0 14 5 14
10 0 6 5 10 10 10 6 0 29 12 53 27 23 15 45 26 50 25 4 -1 7 3 7 9 0 5 15 16
33 24 17 8 59 32 92 55 33 22 65 40 71 40 7 0 15 7 18 16 3 8 10 13 15 10 5
-3 11 1 15 9 3 8 11 15 19 15 7 0 42 20 77 45 35 25 69 45 76 45 6 0 15 7 18
16 3 8 10 13 15 9 6 -3 13 1 18 8 4 8 18 19 30 26 12 6 51 34 87 61 36 28 67
50 70 50 3 0 16 10 30 22 13 13 38 35 55 50 16 16 33 28 37 28 9 0 240 235
279 284 17 20 35 43 40 49 28 32 114 170 145 232 19 39 38 71 42 73 4 2 4 10
1 18 -3 8 1 14 8 14 7 0 10 3 6 6 -3 4 2 23 12 43 11 20 24 56 30 81 7 25 15
52 18 60 11 26 23 73 28 110 2 14 10 45 17 70 16 57 19 591 3 597 -6 2 -10 21
-8 43 1 22 -2 40 -7 40 -5 0 -7 12 -4 26 3 14 0 31 -5 38 -5 6 -8 21 -7 31 2
11 0 25 -4 30 -4 6 -18 56 -30 113 -13 56 -27 102 -33 102 -5 0 -6 8 -3 17 4
9 3 19 -1 22 -5 3 -17 31 -27 61 -11 30 -24 66 -29 80 -6 14 -11 31 -13 39 -1
8 -7 17 -12 20 -5 3 -17 29 -28 56 -20 53 -103 198 -116 203 -5 2 -6 8 -2 13
3 5 0 9 -6 9 -6 0 -15 11 -20 25 -5 14 -14 25 -20 25 -5 0 -10 6 -10 14 0 33
-326 346 -359 346 -5 0 -16 6 -23 13 -17 15 -62 43 -108 65 -19 9 -37 20 -38
25 -2 4 -8 5 -13 1 -5 -3 -9 0 -9 6 0 6 -4 9 -8 6 -4 -2 -21 1 -37 9 -59 26
-116 45 -135 45 -11 0 -20 5 -20 11 0 5 -4 8 -9 4 -5 -3 -12 -2 -15 3 -3 5
-19 7 -35 6 -17 -1 -31 2 -31 7 0 5 -10 9 -22 9 -13 0 -43 3 -68 7 -73 10
-420 15 -420 6 0 -4 -24 -9 -53 -10 -69 -3 -80 -4 -92 -13 -5 -4 -21 -7 -35
-6 -14 1 -27 -1 -30 -4 -4 -4 -107 -38 -165 -53 -5 -2 -25 -11 -42 -20 -18
-10 -35 -17 -38 -17 -22 0 -191 -94 -232 -130 -7 -6 -13 -8 -13 -5 0 3 -6 1
-12 -4 -7 -6 -49 -39 -93 -74 -65 -52 -240 -222 -315 -306 -28 -31 -80 -109
-80 -119 0 -6 -4 -12 -10 -14 -5 -1 -22 -27 -38 -56 l-29 -54 -24 39 c-23 38
-42 63 -66 88 -7 8 -13 16 -13 20 0 13 -194 238 -258 299 -85 81 -142 130
-142 122 0 -3 -11 5 -24 17 -36 33 -46 40 -110 77 -32 19 -70 42 -85 51 -14 9
-29 14 -33 12 -5 -2 -8 -1 -8 4 0 4 -15 14 -32 21 -18 8 -44 18 -58 25 -14 6
-27 11 -30 12 -3 1 -17 7 -32 13 -15 6 -56 18 -90 27 -35 9 -70 19 -78 22 -8
3 -24 7 -35 8 -11 1 -27 4 -35 7 -8 4 -22 7 -30 8 -8 1 -42 4 -75 7 -61 6
-359 9 -440 4 -25 -1 -47 -6 -50 -11 -3 -5 -17 -7 -31 -4 -14 3 -30 1 -37 -3
-12 -7 -21 -10 -62 -17 -11 -2 -33 -8 -48 -15 -16 -6 -35 -11 -43 -11 -8 0
-28 -7 -43 -15 -16 -8 -31 -11 -35 -8 -3 4 -6 1 -6 -6 0 -7 -4 -9 -10 -6 -5 3
-10 1 -10 -5 0 -6 -4 -8 -10 -5 -5 3 -10 1 -10 -4 0 -6 -7 -11 -15 -11 -8 0
-36 -13 -64 -29 -27 -16 -52 -27 -55 -24 -3 3 -8 -2 -12 -11 -3 -9 -11 -16
-18 -16 -6 0 -27 -13 -46 -30 -19 -16 -38 -29 -42 -30 -7 0 -32 -23 -134 -123
-74 -72 -149 -161 -174 -205 -8 -14 -19 -32 -25 -39 -5 -7 -14 -18 -20 -25
-16 -20 -69 -132 -67 -140 1 -5 -3 -8 -9 -8 -5 0 -8 -4 -5 -9 4 -5 3 -11 -1
-13 -7 -3 -40 -83 -47 -113 -1 -5 -9 -26 -17 -45 -9 -19 -21 -64 -29 -100 -7
-36 -16 -69 -21 -74 -4 -5 -5 -15 -2 -22 3 -8 2 -22 -2 -31 -10 -24 -12 -383
-2 -383 4 0 7 -9 7 -20 0 -31 42 -134 62 -151 10 -9 18 -20 18 -25 0 -13 75
-84 89 -84 6 0 11 -4 11 -8 0 -5 17 -18 38 -29 30 -17 55 -21 134 -21 93 0 97
1 130 29 l33 30 0 142 c0 130 -2 145 -22 177 -22 35 -90 170 -111 222 -11 28
-5 98 8 98 5 0 7 8 5 18 -1 9 0 22 4 27 3 6 6 12 7 15 0 3 5 16 11 30 5 14 16
46 24 73 7 26 17 47 22 47 4 0 5 5 2 10 -3 6 -1 10 5 10 6 0 8 5 5 10 -3 6 -1
10 5 10 6 0 8 5 5 10 -3 6 -1 10 4 10 6 0 11 5 11 11 0 6 17 36 38 67 20 31
37 59 37 62 0 6 16 26 48 61 9 10 17 22 17 26 0 4 28 33 63 65 87 81 96 88
107 88 6 0 10 5 10 10 0 6 6 10 14 10 7 0 25 9 40 21 14 11 26 17 26 12 0 -4
4 -3 8 3 7 12 139 78 157 79 6 0 12 3 15 6 4 5 139 51 163 55 4 1 8 3 10 4 1
1 13 4 27 5 14 2 41 7 60 11 47 11 226 11 270 1 19 -5 42 -10 50 -11 8 -2 22
-6 30 -9 8 -3 29 -8 45 -12 28 -6 50 -15 162 -66 24 -10 62 -31 85 -46 24 -14
45 -25 47 -24 2 2 8 -4 13 -13 5 -9 15 -16 22 -16 7 0 30 -16 50 -35 21 -19
41 -35 44 -35 4 0 52 -46 106 -102 121 -127 126 -133 126 -143 0 -4 8 -15 18
-24 24 -22 158 -223 155 -233 -2 -4 2 -8 8 -8 5 0 8 -4 5 -9 -4 -5 -3 -11 1
-13 9 -3 73 -134 72 -144 0 -4 3 -10 8 -13 11 -7 97 -221 107 -265 4 -16 17
-41 29 -55 20 -24 29 -26 96 -25 70 0 75 2 103 33 16 18 31 45 35 62 3 16 10
29 16 29 6 0 7 3 4 7 -4 3 0 17 8 30 9 13 13 23 10 23 -2 0 4 16 15 35 11 20
20 40 20 46 0 6 11 34 24 62 13 29 37 81 52 117 16 36 32 68 37 71 5 3 8 10 8
15 -1 5 23 45 51 89 29 44 55 84 57 90 2 5 9 15 15 21 6 6 22 26 36 44 67 88
129 153 204 215 20 17 42 35 49 40 18 15 71 49 77 50 3 0 19 10 37 23 17 12
36 22 42 22 6 0 11 5 11 11 0 5 4 8 9 5 5 -4 11 -3 13 2 2 6 129 64 148 68 3
0 13 4 22 8 9 4 22 8 30 10 7 1 18 4 23 7 6 4 42 12 80 19 39 7 77 15 85 18 8
3 31 5 50 4 19 0 39 3 45 7 9 7 51 7 58 1 1 -2 18 -4 37 -5 19 -2 49 -5 65 -9
124 -24 185 -40 185 -49 0 -6 3 -7 7 -4 3 4 12 2 20 -4 7 -6 13 -8 13 -4 0 4
7 2 15 -5 8 -7 15 -10 15 -6 0 3 24 -6 53 -21 28 -15 54 -27 57 -28 19 -3 163
-93 208 -130 41 -33 162 -156 162 -164 0 -6 6 -14 14 -18 18 -10 136 -193 136
-210 0 -7 5 -13 12 -13 6 0 8 -3 5 -7 -4 -3 0 -17 8 -30 9 -13 13 -28 10 -33
-3 -6 -2 -10 3 -10 8 0 45 -93 57 -140 2 -8 4 -16 5 -17 2 -2 3 -6 5 -10 1 -5
5 -16 9 -25 4 -9 8 -22 10 -30 1 -7 4 -18 8 -23 3 -6 12 -38 19 -73 7 -34 16
-62 19 -62 3 0 7 -10 8 -22 3 -37 8 -63 14 -73 3 -6 5 -27 4 -48 0 -20 3 -37
7 -37 4 0 7 -17 7 -37 0 -21 -1 -81 0 -133 0 -52 -4 -96 -8 -98 -5 -1 -7 -17
-6 -35 1 -17 -1 -36 -6 -42 -4 -5 -6 -18 -5 -27 2 -10 -1 -18 -7 -18 -6 0 -8
-9 -5 -20 3 -11 2 -22 -3 -25 -4 -3 -11 -21 -15 -41 -3 -20 -10 -44 -15 -53
-17 -34 -34 -76 -35 -86 0 -5 -2 -12 -5 -15 -3 -3 -18 -30 -33 -60 -46 -91
-59 -113 -97 -157 -8 -10 -13 -18 -10 -18 6 -1 -12 -23 -51 -66 -15 -15 -25
-30 -23 -32 6 -6 -204 -218 -255 -258 -24 -19 -53 -44 -64 -56 -11 -13 -25
-23 -31 -23 -6 0 -17 -9 -24 -21 -7 -12 -16 -19 -19 -16 -2 3 -13 -2 -22 -11
-30 -28 -175 -131 -184 -131 -5 0 -17 -9 -26 -20 -10 -12 -23 -21 -29 -21 -6
0 -16 -8 -21 -18 -6 -9 -11 -13 -11 -9 0 4 -27 -10 -59 -33 -33 -22 -64 -40
-69 -40 -6 0 -12 -6 -15 -13 -3 -8 -21 -22 -41 -31 -20 -9 -36 -21 -36 -27 0
-6 -4 -8 -9 -4 -5 3 -12 1 -16 -4 -3 -5 -30 -24 -60 -41 -30 -17 -61 -37 -68
-44 -7 -7 -24 -18 -37 -25 -36 -19 -194 -124 -202 -136 -4 -5 -8 -6 -8 -2 0 4
-6 3 -12 -3 -28 -22 -183 -135 -188 -135 -10 -1 -68 -55 -224 -210 -88 -88
-164 -160 -168 -160 -14 0 -378 -372 -395 -402 -10 -18 -21 -33 -25 -33 -5 0
-8 -6 -8 -12 0 -7 -9 -24 -20 -38 l-19 -25 -68 75 c-368 404 -478 518 -605
626 -47 41 -89 74 -92 74 -3 0 -16 10 -29 22 -13 13 -36 32 -52 43 -16 11 -37
28 -47 38 -10 9 -18 14 -18 11 0 -3 -22 13 -50 36 -27 23 -50 40 -50 37 0 -3
-14 8 -31 24 -17 16 -37 29 -45 29 -8 0 -14 4 -14 9 0 5 -20 21 -45 35 -25 15
-45 32 -45 38 0 6 -3 9 -6 5 -5 -5 -80 45 -115 78 -9 8 -21 15 -27 15 -7 0
-12 5 -12 10 0 6 -4 10 -9 10 -12 0 -150 96 -205 142 -21 18 -47 36 -58 40
-10 4 -45 26 -78 48 -32 22 -63 40 -69 40 -5 0 -22 10 -38 23 -15 12 -54 35
-86 51 -31 16 -60 33 -63 38 -3 5 -39 25 -79 44 -41 20 -79 42 -86 50 -6 8
-17 14 -23 14 -6 0 -44 20 -84 45 -40 25 -76 45 -81 45 -5 0 -22 10 -38 23
-15 12 -53 35 -84 49 -31 15 -62 34 -69 43 -7 8 -18 15 -24 15 -7 0 -41 20
-77 45 -35 25 -68 45 -73 45 -4 0 -36 20 -70 45 -231 172 -324 247 -360 293
-10 13 -29 28 -42 32 -13 5 -24 15 -24 22 0 7 -26 38 -57 68 -31 30 -74 79
-97 109 -129 171 -156 207 -156 215 0 6 -8 19 -18 30 -10 12 -29 46 -42 76
-13 30 -38 71 -55 90 -17 19 -36 51 -44 70 -7 19 -23 60 -36 90 -59 140 -64
157 -76 298 -10 114 -10 169 0 283 14 155 36 303 51 334 5 11 21 65 36 120 14
55 32 114 39 130 8 17 24 59 36 95 21 60 71 172 104 230 8 14 28 53 46 88 17
34 35 65 40 68 5 3 18 22 28 42 10 20 48 74 82 120 35 46 73 95 84 110 88 118
327 300 451 342 31 11 62 24 68 29 15 12 118 46 186 61 30 7 60 16 66 21 29
23 206 43 384 44 178 0 375 -22 405 -45 32 -26 295 -51 295 -29 0 4 8 10 18
13 36 12 70 52 77 91 13 77 13 169 -1 197 -8 15 -16 37 -18 50 -3 13 -5 23 -6
23 -1 0 -3 9 -5 20 -5 29 -75 218 -86 231 -5 7 -11 26 -12 43 -1 17 -5 31 -8
31 -3 0 -5 10 -4 23 1 12 0 26 -3 32 -3 5 -8 23 -11 40 -7 42 -4 305 3 335 4
14 9 38 11 54 2 16 8 32 12 37 14 14 96 19 138 8 22 -5 51 -12 65 -15 24 -5
149 -63 160 -74 3 -3 34 -23 70 -44 36 -22 67 -43 70 -47 3 -3 21 -17 41 -31
67 -45 158 -130 201 -187 53 -71 203 -222 246 -246 17 -11 32 -22 32 -26 0 -4
8 -5 18 -3 9 3 37 -6 62 -19 58 -30 86 -28 201 16 131 49 136 50 311 60 27 1
56 9 66 18 11 9 26 13 38 9 10 -4 35 -13 54 -20 19 -6 66 -12 104 -11 45 0 73
-4 77 -11 5 -7 25 -13 46 -15 35 -2 147 -30 185 -47 9 -4 22 -8 30 -10 7 -1
18 -5 24 -9 6 -3 14 -3 18 1 4 4 13 7 19 8 7 0 20 2 30 2 16 2 82 65 339 328
42 44 98 97 123 119 26 22 53 45 59 51 7 6 21 14 33 18 11 4 28 15 38 26 10
11 22 20 26 20 5 0 33 16 64 35 30 20 55 33 55 29 0 -4 8 0 18 8 21 18 99 50
127 52 11 1 25 4 30 7 6 3 47 7 92 8 76 3 82 1 94 -21 7 -12 14 -36 15 -53 1
-16 4 -50 8 -75 18 -127 8 -392 -16 -416 -4 -3 -4 -12 -1 -20 3 -8 0 -14 -7
-14 -6 0 -8 -5 -5 -10 4 -6 0 -21 -8 -33 -22 -35 -68 -169 -63 -184 3 -7 1
-13 -5 -13 -5 0 -9 -6 -8 -12 2 -13 -3 -29 -26 -83 -21 -49 -27 -74 -30 -128
-2 -29 -7 -67 -10 -84 l-6 -33 130 0 c98 0 131 3 132 13 0 6 3 21 5 32 2 11 6
43 8 71 4 55 10 80 31 129 22 51 28 69 32 95 6 41 44 151 64 184 10 17 20 45
23 61 2 17 5 30 6 30 4 0 12 49 19 125 8 92 7 193 -5 280 -4 30 -8 69 -10 85
-1 17 -3 32 -4 35 -1 3 -3 10 -4 15 -7 35 -35 72 -115 153 l-91 92 -178 0
c-159 0 -180 -2 -209 -20 -18 -11 -33 -17 -33 -15 0 3 -25 -10 -55 -30 -31
-19 -58 -35 -61 -35 -3 0 -20 -11 -38 -25 -18 -14 -36 -25 -39 -25 -9 0 -45
-30 -75 -63 -14 -15 -28 -25 -30 -22 -3 3 -102 -92 -220 -210 -118 -118 -225
-217 -236 -219 -12 -2 -25 -5 -31 -6 -5 -1 -12 -1 -15 0 -3 1 -12 3 -20 5 -16
3 -115 33 -140 42 -31 12 -46 14 -81 13 -23 0 -39 5 -42 14 -4 10 -24 14 -74
15 -69 0 -105 5 -124 16 -23 15 -69 15 -96 2 -15 -8 -45 -13 -65 -12 -24 2
-38 -1 -42 -11 -4 -10 -11 -11 -31 -4 -25 9 -74 3 -142 -18 -18 -6 -33 -8 -33
-5 0 3 -6 0 -13 -6 -36 -29 -192 -69 -207 -52 -13 15 -80 42 -89 37 -6 -4 -27
12 -48 35 -142 156 -419 419 -442 419 -5 0 -11 4 -13 9 -1 5 -39 32 -83 60
-44 28 -84 54 -90 59 -5 4 -31 18 -57 30 -44 20 -62 22 -215 21 l-168 -1 -77
-82z"/>
</g>
</svg>
